<svg width="236" height="31" viewBox="0 0 236 31" fill="none" xmlns="http://www.w3.org/2000/svg">
<path d="M47.9838 21.8824C47.0469 21.8824 46.1382 21.7593 45.2578 21.513C44.3886 21.2556 43.6887 20.9253 43.1582 20.5224L44.0895 18.4738C44.5974 18.8432 45.2013 19.1399 45.9012 19.3638C46.6011 19.5876 47.3009 19.6996 48.0008 19.6996C48.7796 19.6996 49.3553 19.5876 49.7278 19.3638C50.1003 19.1287 50.2866 18.8208 50.2866 18.4402C50.2866 18.1604 50.1737 17.9309 49.948 17.7518C49.7335 17.5615 49.4513 17.4104 49.1014 17.2984C48.7627 17.1865 48.2999 17.0634 47.7129 16.929C46.8099 16.7163 46.0705 16.5037 45.4948 16.291C44.9191 16.0783 44.4225 15.7369 44.0048 15.2667C43.5984 14.7965 43.3953 14.1697 43.3953 13.3861C43.3953 12.7032 43.5815 12.0876 43.954 11.539C44.3265 10.9793 44.8853 10.5372 45.6303 10.2125C46.3866 9.8879 47.3066 9.72559 48.3902 9.72559C49.1465 9.72559 49.8859 9.81514 50.6083 9.99425C51.3307 10.1734 51.9629 10.4308 52.5047 10.7666L51.6581 12.832C50.5632 12.2163 49.4682 11.9084 48.3733 11.9084C47.6057 11.9084 47.0356 12.0316 46.6631 12.2779C46.3019 12.5241 46.1213 12.8488 46.1213 13.2517C46.1213 13.6547 46.3301 13.957 46.7478 14.1585C47.1767 14.3488 47.8258 14.5391 48.695 14.7294C49.598 14.9421 50.3374 15.1548 50.9131 15.3674C51.4888 15.5801 51.9798 15.916 52.3862 16.3749C52.8038 16.8339 53.0127 17.4552 53.0127 18.2387C53.0127 18.9104 52.8208 19.5261 52.437 20.0858C52.0645 20.6343 51.5001 21.0709 50.7438 21.3955C49.9875 21.7201 49.0675 21.8824 47.9838 21.8824Z" fill="black"/>
<path d="M65.7065 21.8824C64.4761 21.8824 63.3643 21.6194 62.3709 21.0933C61.3889 20.5671 60.6156 19.8451 60.0512 18.9272C59.4981 17.9981 59.2216 16.957 59.2216 15.804C59.2216 14.651 59.4981 13.6156 60.0512 12.6976C60.6156 11.7685 61.3889 11.0409 62.3709 10.5148C63.3643 9.98865 64.4761 9.72559 65.7065 9.72559C66.9369 9.72559 68.0432 9.98865 69.0252 10.5148C70.0073 11.0409 70.7805 11.7685 71.3449 12.6976C71.9093 13.6156 72.1915 14.651 72.1915 15.804C72.1915 16.957 71.9093 17.9981 71.3449 18.9272C70.7805 19.8451 70.0073 20.5671 69.0252 21.0933C68.0432 21.6194 66.9369 21.8824 65.7065 21.8824ZM65.7065 19.5653C66.4064 19.5653 67.0385 19.4085 67.6029 19.0951C68.1673 18.7705 68.6076 18.3227 68.9236 17.7518C69.251 17.1809 69.4147 16.5316 69.4147 15.804C69.4147 15.0764 69.251 14.4271 68.9236 13.8562C68.6076 13.2853 68.1673 12.8432 67.6029 12.5297C67.0385 12.2051 66.4064 12.0428 65.7065 12.0428C65.0067 12.0428 64.3746 12.2051 63.8102 12.5297C63.2458 12.8432 62.7999 13.2853 62.4725 13.8562C62.1565 14.4271 61.9984 15.0764 61.9984 15.804C61.9984 16.5316 62.1565 17.1809 62.4725 17.7518C62.7999 18.3227 63.2458 18.7705 63.8102 19.0951C64.3746 19.4085 65.0067 19.5653 65.7065 19.5653Z" fill="black"/>
<path d="M79.3326 9.92708H82.0756V19.4645H88.0188V21.681H79.3326V9.92708Z" fill="black"/>
<path d="M102.536 19.1623H97.033L95.9832 21.681H93.1725L98.4553 9.92708H101.164L106.464 21.681H103.586L102.536 19.1623ZM101.672 17.0969L99.7929 12.5969L97.9134 17.0969H101.672Z" fill="black"/>
<path d="M120.325 21.681L118.039 18.4067H117.904H115.516V21.681H112.773V9.92708H117.904C118.954 9.92708 119.862 10.1006 120.63 10.4476C121.409 10.7946 122.007 11.2872 122.425 11.9252C122.842 12.5633 123.051 13.3189 123.051 14.1921C123.051 15.0652 122.837 15.8208 122.408 16.4589C121.99 17.0857 121.392 17.5671 120.613 17.9029L123.271 21.681H120.325ZM120.274 14.1921C120.274 13.5316 120.06 13.0279 119.631 12.6808C119.202 12.3226 118.575 12.1435 117.751 12.1435H115.516V16.2406H117.751C118.575 16.2406 119.202 16.0615 119.631 15.7033C120.06 15.3451 120.274 14.8413 120.274 14.1921Z" fill="black"/>
<path d="M150.033 9.92708V21.681H147.781L141.872 14.5447V21.681H139.163V9.92708H141.432L147.324 17.0634V9.92708H150.033Z" fill="black"/>
<path d="M165.723 19.1623H160.22L159.17 21.681H156.359L161.642 9.92708H164.351L169.651 21.681H166.773L165.723 19.1623ZM164.859 17.0969L162.98 12.5969L161.1 17.0969H164.859Z" fill="black"/>
<path d="M177.82 12.1435H174.028V9.92708H184.356V12.1435H180.563V21.681H177.82V12.1435Z" fill="black"/>
<path d="M195.979 21.8824C194.286 21.8824 192.965 21.4179 192.017 20.4888C191.08 19.5597 190.612 18.2331 190.612 16.5092V9.92708H193.355V16.4085C193.355 18.513 194.235 19.5653 195.996 19.5653C196.854 19.5653 197.509 19.3134 197.96 18.8096C198.412 18.2947 198.637 17.4943 198.637 16.4085V9.92708H201.346V16.5092C201.346 18.2331 200.872 19.5597 199.924 20.4888C198.987 21.4179 197.672 21.8824 195.979 21.8824Z" fill="black"/>
<path d="M216.688 21.681L214.403 18.4067H214.267H211.88V21.681H209.137V9.92708H214.267C215.317 9.92708 216.226 10.1006 216.993 10.4476C217.772 10.7946 218.37 11.2872 218.788 11.9252C219.206 12.5633 219.414 13.3189 219.414 14.1921C219.414 15.0652 219.2 15.8208 218.771 16.4589C218.353 17.0857 217.755 17.5671 216.976 17.9029L219.635 21.681H216.688ZM216.638 14.1921C216.638 13.5316 216.423 13.0279 215.994 12.6808C215.565 12.3226 214.939 12.1435 214.115 12.1435H211.88V16.2406H214.115C214.939 16.2406 215.565 16.0615 215.994 15.7033C216.423 15.3451 216.638 14.8413 216.638 14.1921Z" fill="black"/>
<path d="M235.844 19.4981V21.681H226.667V9.92708H235.624V12.1099H229.393V14.6622H234.896V16.7779H229.393V19.4981H235.844Z" fill="black"/>
<path fill-rule="evenodd" clip-rule="evenodd" d="M31 15.5L22.475 6.97497L17.825 11.625L20.3625 14.1625L20.3627 14.1623L26.3502 20.1498L31 15.5ZM19.3752 17.8248L15.5464 21.6536L15.5466 21.6537L10.8502 26.3502L15.5 31L24.0252 22.4748L19.3752 17.8248ZM0 15.5L8.52517 24.0252L13.1752 19.3752L9.77305 15.9731L9.77117 15.9749L4.64812 10.8519L0 15.5ZM6.97312 8.52688L11.6231 13.1769L14.3515 10.4485L14.3514 10.4485L20.15 4.64997L15.5 0L6.97312 8.52688Z" fill="#00B259"/>
</svg>
