<svg width="114" height="33" viewBox="0 0 114 33" fill="none" xmlns="http://www.w3.org/2000/svg">
<path d="M45.2029 12.3918C44.5083 12.3918 43.8345 12.2997 43.1817 12.1156C42.5373 11.9231 42.0184 11.6762 41.625 11.3749L42.3155 9.84332C42.6921 10.1195 43.1399 10.3413 43.6588 10.5087C44.1777 10.6761 44.6966 10.7598 45.2155 10.7598C45.793 10.7598 46.2198 10.6761 46.496 10.5087C46.7722 10.3329 46.9103 10.1028 46.9103 9.81821C46.9103 9.60898 46.8266 9.43741 46.6592 9.3035C46.5002 9.16122 46.291 9.04824 46.0315 8.96454C45.7804 8.88085 45.4373 8.78879 45.0021 8.68836C44.3325 8.52934 43.7843 8.37033 43.3575 8.21131C42.9306 8.05229 42.5624 7.79703 42.2527 7.44552C41.9514 7.09401 41.8008 6.62533 41.8008 6.03948C41.8008 5.52896 41.9389 5.06865 42.215 4.65856C42.4912 4.24009 42.9055 3.90951 43.4579 3.6668C44.0187 3.42409 44.7008 3.30273 45.5042 3.30273C46.065 3.30273 46.6132 3.36969 47.1488 3.5036C47.6845 3.63751 48.1532 3.83 48.5549 4.08108L47.9272 5.62521C47.1153 5.1649 46.3035 4.93474 45.4917 4.93474C44.9226 4.93474 44.4999 5.0268 44.2237 5.21093C43.9559 5.39505 43.822 5.63776 43.822 5.93905C43.822 6.24035 43.9768 6.46632 44.2865 6.61696C44.6045 6.75924 45.0858 6.90152 45.7302 7.0438C46.3998 7.20281 46.948 7.36183 47.3748 7.52084C47.8016 7.67986 48.1657 7.93094 48.467 8.27408C48.7767 8.61722 48.9315 9.08171 48.9315 9.66756C48.9315 10.1697 48.7892 10.63 48.5047 11.0485C48.2285 11.4586 47.81 11.785 47.2493 12.0277C46.6885 12.2704 46.0064 12.3918 45.2029 12.3918Z" fill="black"/>
<path d="M58.3433 12.3918C57.431 12.3918 56.6066 12.1951 55.8701 11.8017C55.142 11.4084 54.5687 10.8686 54.1502 10.1823C53.7401 9.48762 53.5351 8.70928 53.5351 7.84725C53.5351 6.98521 53.7401 6.21105 54.1502 5.52477C54.5687 4.83013 55.142 4.28612 55.8701 3.89277C56.6066 3.49941 57.431 3.30273 58.3433 3.30273C59.2556 3.30273 60.0758 3.49941 60.8039 3.89277C61.532 4.28612 62.1054 4.83013 62.5238 5.52477C62.9423 6.21105 63.1515 6.98521 63.1515 7.84725C63.1515 8.70928 62.9423 9.48762 62.5238 10.1823C62.1054 10.8686 61.532 11.4084 60.8039 11.8017C60.0758 12.1951 59.2556 12.3918 58.3433 12.3918ZM58.3433 10.6593C58.8622 10.6593 59.3309 10.5422 59.7494 10.3078C60.1678 10.0651 60.4942 9.73033 60.7286 9.3035C60.9713 8.87667 61.0927 8.39125 61.0927 7.84725C61.0927 7.30324 60.9713 6.81783 60.7286 6.39099C60.4942 5.96416 60.1678 5.63357 59.7494 5.39924C59.3309 5.15653 58.8622 5.03517 58.3433 5.03517C57.8244 5.03517 57.3557 5.15653 56.9372 5.39924C56.5188 5.63357 56.1882 5.96416 55.9455 6.39099C55.7111 6.81783 55.5939 7.30324 55.5939 7.84725C55.5939 8.39125 55.7111 8.87667 55.9455 9.3035C56.1882 9.73033 56.5188 10.0651 56.9372 10.3078C57.3557 10.5422 57.8244 10.6593 58.3433 10.6593Z" fill="black"/>
<path d="M68.4462 3.45338H70.48V10.584H74.8865V12.2411H68.4462V3.45338Z" fill="black"/>
<path d="M85.6501 10.358H81.57L80.7917 12.2411H78.7077L82.6246 3.45338H84.6332L88.5627 12.2411H86.4285L85.6501 10.358ZM85.0099 8.8139L83.6164 5.44945L82.2229 8.8139H85.0099Z" fill="black"/>
<path d="M98.8398 12.2411L97.145 9.7931H97.0446H95.2745V12.2411H93.2407V3.45338H97.0446C97.8229 3.45338 98.4967 3.5831 99.0658 3.84255C99.6433 4.102 100.087 4.47025 100.397 4.9473C100.706 5.42434 100.861 5.98927 100.861 6.64207C100.861 7.29487 100.702 7.8598 100.384 8.33685C100.074 8.80553 99.6307 9.16541 99.0532 9.41648L101.024 12.2411H98.8398ZM98.8022 6.64207C98.8022 6.14829 98.6431 5.77167 98.3251 5.51222C98.0071 5.2444 97.5426 5.1105 96.9316 5.1105H95.2745V8.17365H96.9316C97.5426 8.17365 98.0071 8.03974 98.3251 7.77192C98.6431 7.50411 98.8022 7.12749 98.8022 6.64207Z" fill="black"/>
<path d="M50.3752 19.6816V28.4693H48.7055L44.3241 23.1339V28.4693H42.3155V19.6816H43.9977L48.3666 25.017V19.6816H50.3752Z" fill="black"/>
<path d="M62.0081 26.5862H57.928L57.1497 28.4693H55.0657L58.9826 19.6816H60.9912L64.9207 28.4693H62.7865L62.0081 26.5862ZM61.3679 25.0421L59.9744 21.6777L58.5808 25.0421H61.3679Z" fill="black"/>
<path d="M70.9777 21.3387H68.1655V19.6816H75.8236V21.3387H73.0114V28.4693H70.9777V21.3387Z" fill="black"/>
<path d="M84.4413 28.62C83.1859 28.62 82.2067 28.2726 81.5036 27.578C80.809 26.8833 80.4616 25.8916 80.4616 24.6027V19.6816H82.4954V24.5274C82.4954 26.1008 83.1482 26.8875 84.4539 26.8875C85.0899 26.8875 85.5754 26.6992 85.9101 26.3226C86.2449 25.9376 86.4123 25.3392 86.4123 24.5274V19.6816H88.421V24.6027C88.421 25.8916 88.0695 26.8833 87.3664 27.578C86.6718 28.2726 85.6967 28.62 84.4413 28.62Z" fill="black"/>
<path d="M99.7961 28.4693L98.1013 26.0213H98.0009H96.2307V28.4693H94.197V19.6816H98.0009C98.7792 19.6816 99.453 19.8113 100.022 20.0708C100.6 20.3302 101.043 20.6985 101.353 21.1755C101.662 21.6526 101.817 22.2175 101.817 22.8703C101.817 23.5231 101.658 24.088 101.34 24.5651C101.031 25.0337 100.587 25.3936 100.01 25.6447L101.981 28.4693H99.7961ZM99.7584 22.8703C99.7584 22.3765 99.5994 21.9999 99.2814 21.7404C98.9633 21.4726 98.4988 21.3387 97.8879 21.3387H96.2307V24.4019H97.8879C98.4988 24.4019 98.9633 24.268 99.2814 24.0001C99.5994 23.7323 99.7584 23.3557 99.7584 22.8703Z" fill="black"/>
<path d="M113.999 26.8373V28.4693H107.195V19.6816H113.836V21.3136H109.216V23.2218H113.296V24.8036H109.216V26.8373H113.999Z" fill="black"/>
<path fill-rule="evenodd" clip-rule="evenodd" d="M32.1969 16.0984L23.3427 7.24427L18.5132 12.0738L21.1487 14.7093L21.1489 14.7091L27.3676 20.9278L32.1969 16.0984ZM20.1233 18.513L16.1467 22.4896L16.1469 22.4898L11.2691 27.3675L16.0984 32.1969L24.9528 23.3425L20.1233 18.513ZM0 16.0984L8.85432 24.9528L13.6839 20.1232L10.1504 16.5898L10.1484 16.5917L4.82758 11.2709L0 16.0984ZM7.24235 8.8561L12.0719 13.6856L14.9056 10.8519L14.9055 10.8519L20.9279 4.8295L16.0984 0L7.24235 8.8561Z" fill="#00B259"/>
</svg>
