<svg width="24" height="24" viewBox="0 0 24 24" fill="none" xmlns="http://www.w3.org/2000/svg">
<path fill-rule="evenodd" clip-rule="evenodd" d="M7 3C4.79086 3 3 4.79086 3 7V17C3 19.2091 4.79086 21 7 21H17C19.2091 21 21 19.2091 21 17V7C21 4.79086 19.2091 3 17 3H7ZM1 7C1 3.68629 3.68629 1 7 1H17C20.3137 1 23 3.68629 23 7V17C23 20.3137 20.3137 23 17 23H7C3.68629 23 1 20.3137 1 17V7Z" fill="#3D3D3D"/>
<path fill-rule="evenodd" clip-rule="evenodd" d="M12.483 8.98918C11.8588 8.89662 11.2214 9.00324 10.6613 9.29386C10.1012 9.58449 9.64697 10.0443 9.36327 10.608C9.07957 11.1716 8.98083 11.8103 9.08108 12.4333C9.18132 13.0563 9.47546 13.6319 9.92165 14.0781C10.3678 14.5242 10.9434 14.8184 11.5664 14.9186C12.1894 15.0189 12.8281 14.9201 13.3917 14.6364C13.9554 14.3527 14.4152 13.8985 14.7058 13.3384C14.9965 12.7783 15.1031 12.1409 15.0105 11.5167C14.9161 10.88 14.6194 10.2905 14.1643 9.83541C13.7092 9.38028 13.1197 9.08359 12.483 8.98918ZM9.74012 7.51862C10.6736 7.03424 11.7361 6.85655 12.7764 7.01081C13.8375 7.16817 14.82 7.66264 15.5785 8.4212C16.3371 9.17975 16.8315 10.1622 16.9889 11.2233C17.1432 12.2636 16.9655 13.3261 16.4811 14.2596C15.9967 15.1931 15.2303 15.9501 14.2909 16.4229C13.3515 16.8957 12.287 17.0603 11.2486 16.8932C10.2103 16.7261 9.25109 16.2359 8.50744 15.4923C7.76379 14.7486 7.27356 13.7894 7.10648 12.7511C6.9394 11.7128 7.10397 10.6482 7.5768 9.70878C8.04963 8.76938 8.80662 8.00299 9.74012 7.51862Z" fill="#3D3D3D"/>
</svg>
