<svg width="24" height="24" viewBox="0 0 24 24" fill="none" xmlns="http://www.w3.org/2000/svg">
<path fill-rule="evenodd" clip-rule="evenodd" d="M20.1566 2.71321C20.4099 2.61501 20.6851 2.58745 20.9528 2.63345C21.2205 2.67945 21.4707 2.7973 21.6767 2.9744C21.8827 3.15151 22.0367 3.38123 22.1224 3.63904C22.208 3.89684 22.222 4.17306 22.1628 4.43821L22.1619 4.44241L22.1619 4.44241L18.6369 19.8362L18.6368 19.8366C18.5786 20.0901 18.4554 20.3242 18.2794 20.5158C18.1034 20.7074 17.8805 20.8499 17.6328 20.9293C17.385 21.0088 17.1209 21.0224 16.8663 20.9689C16.6122 20.9154 16.3763 20.797 16.1817 20.6251C16.1813 20.6247 16.1809 20.6244 16.1806 20.6241L7.90498 13.3427L3.10508 12.3791L3.10199 12.3784C1.66028 12.0827 1.43873 10.0633 2.84779 9.51108L3.12144 10.2094L2.84728 9.51128L2.84779 9.51108L20.1535 2.71441L20.1566 2.71321ZM3.39981 10.9058C3.39995 10.9067 3.4001 10.9076 3.40027 10.9083C3.40099 10.9085 3.40176 10.9087 3.40259 10.9089C3.40286 10.9089 3.40313 10.909 3.40341 10.909L8.39719 11.9115C8.52624 11.9374 8.64619 11.9969 8.745 12.0838L17.1731 19.4994L17.1748 19.5009L20.6988 4.11179L3.39981 10.9058ZM3.39267 10.906C3.39267 10.906 3.39268 10.906 3.3927 10.906L3.39267 10.906Z" fill="#3D3D3D"/>
<path fill-rule="evenodd" clip-rule="evenodd" d="M21.6174 2.9921C21.86 3.32789 21.7844 3.79671 21.4486 4.03924L8.68919 13.2549C8.3534 13.4974 7.88458 13.4218 7.64206 13.086C7.39953 12.7502 7.47513 12.2814 7.81092 12.0389L20.5703 2.82324C20.9061 2.58071 21.3749 2.65632 21.6174 2.9921Z" fill="#3D3D3D"/>
<path fill-rule="evenodd" clip-rule="evenodd" d="M8.25 11.8969C8.66421 11.8969 9 12.2327 9 12.6469L9 18.7488L9.00403 18.7447L11.929 15.8197C12.2219 15.5268 12.6968 15.5268 12.9897 15.8197C13.2826 16.1126 13.2826 16.5874 12.9897 16.8803L10.0664 19.8037C9.85803 20.0143 9.59195 20.1585 9.30169 20.2181C9.01034 20.2779 8.70777 20.2498 8.43244 20.1372C8.15712 20.0247 7.92147 19.8328 7.75544 19.5861C7.58941 19.3393 7.5005 19.0487 7.5 18.7513L7.5 12.6469C7.5 12.2327 7.83579 11.8969 8.25 11.8969Z" fill="#3D3D3D"/>
</svg>
